<?xml version="1.0" standalone="no"?><!DOCTYPE svg PUBLIC "-//W3C//DTD SVG 1.1//EN" "http://www.w3.org/Graphics/SVG/1.1/DTD/svg11.dtd"><svg t="1620829303970" class="icon" viewBox="0 0 1024 1024" version="1.1" xmlns="http://www.w3.org/2000/svg" p-id="5796" xmlns:xlink="http://www.w3.org/1999/xlink" width="200" height="200"><defs><style type="text/css"></style></defs><path d="M836.880576 269.997122l-0.736691 0.736691c-3.830791 3.757122-38.234245 35.066475-118.533525 20.922014A29.467626 29.467626 0 1 0 707.223022 349.70705a290.62446 290.62446 0 0 0 49.57928 4.493813L517.083165 606.959424 398.696978 493.582734a29.467626 29.467626 0 0 0-41.475683 0.73669L144.612374 713.190216a29.467626 29.467626 0 1 0 42.286043 41.033669l192.20259-197.72777 118.607194 113.45036a28.951942 28.951942 0 0 0 21.069353 8.177266 29.467626 29.467626 0 0 0 20.701007-9.134964l340.130072-358.4 0.81036-0.884029a29.467626 29.467626 0 0 0-43.538417-39.707626z" p-id="5797"></path><path d="M935.597122 77.352518H88.402878a88.402878 88.402878 0 0 0-88.402878 88.402878v692.489208a88.402878 88.402878 0 0 0 88.402878 88.402878h847.194244a88.402878 88.402878 0 0 0 88.402878-88.402878v-692.489208a88.402878 88.402878 0 0 0-88.402878-88.402878z m29.467626 780.892086a29.467626 29.467626 0 0 1-29.467626 29.467626H88.402878a29.467626 29.467626 0 0 1-29.467626-29.467626v-692.489208a29.467626 29.467626 0 0 1 29.467626-29.467626h847.194244a29.467626 29.467626 0 0 1 29.467626 29.467626z" p-id="5798"></path></svg>